<?xml version="1.0" encoding="UTF-8"?>
<svg id="Layer_1" data-name="Layer 1" xmlns="http://www.w3.org/2000/svg" viewBox="0 0 1678.57 356.59">
  <defs>
    <style>
      .cls-1 {
        fill: #010101;
        stroke-width: 0px;
      }
    </style>
  </defs>
  <path class="cls-1" d="M894.55,136.42c4.49-16.57,11.36-31.1,23.23-42.89,30.21-30.01,79.55-29.99,109.92.04,18.57,18.36,27.45,41.22,29.57,66.64,2.04,24.45,1.41,48.88-8.84,71.92-12.71,28.57-33.14,48.02-65.08,52.43-30.32,4.19-53.48-7.97-70.22-33.13-1.21-1.82-2.31-3.71-3.56-5.73-1.97,1.73-.99,3.81-1,5.55-.07,33.02-.16,66.04.06,99.06.03,4.79-.92,6.37-6.06,6.29-20.69-.33-41.38-.26-62.07-.03-4.35.05-5.55-1.16-5.54-5.52.12-89.59.12-179.19.01-268.78,0-4.13.78-5.82,5.37-5.59,8.12.41,16.29.33,24.42.02,3.68-.14,5.35,1.05,6.67,4.48,6.33,16.37,12.96,32.62,19.51,48.9.78,1.95,1.06,4.19,3.61,6.35ZM983.87,178.34c-.02-5.51-.29-10.99-1.7-16.36-3.73-14.22-12.22-24.07-26.99-26.5-15.39-2.53-29.44.32-39.02,14.4-9.92,14.59-10.05,42.05-.12,56.54,9.72,14.18,23.8,17.28,39.57,14.43,14.83-2.69,23.04-12.6,26.63-26.82,1.3-5.17,1.59-10.42,1.62-15.7Z"/>
  <path class="cls-1" d="M59.56,219.96c-2.92,2.19-3.19,5.48-4.31,8.2-6.33,15.42-12.62,30.86-18.53,46.44-1.48,3.9-3.23,5.51-7.5,5.32-7.91-.35-15.86-.39-23.76,0-4.57.23-5.87-1.45-5.35-5.62.22-1.73.04-3.52.04-5.28,0-87.39.06-174.77-.13-262.16C0,1.44,1.21-.1,6.78,0c20.24.37,40.5.32,60.75.02,4.87-.07,6.19,1.05,6.15,6.07-.25,33.9-.13,67.79-.13,101.69,0,.81,0,1.62,0,4.31,2.9-4.44,4.78-7.48,6.82-10.39,28.35-40.49,81.93-38.6,112.74-7.75,17.01,17.03,25.92,37.95,28.56,61.55,2.94,26.27,2.56,52.39-8.4,77.1-12.91,29.1-34.24,47.9-66.66,52.41-30.79,4.28-63.83-13.22-77.86-41.07-3.85-7.64-6.83-15.55-9.18-23.99ZM148.92,180.8c.02-8.08-.32-13.78-1.83-19.32-3.86-14.14-12.53-23.78-27.28-26.08-14.85-2.31-28.65.28-38,13.68-8.73,12.5-9.35,26.69-6.98,41.07,2.72,16.55,13.12,27.76,27.58,30.75,16.85,3.48,31.92-2,39.9-14.72,5.31-8.47,6.65-17.97,6.61-25.39Z"/>
  <path class="cls-1" d="M1215.66,193.46c-22.67,0-45.35.11-68.02-.09-4.76-.04-5.76.82-4.64,5.82,5.92,26.38,33.82,38.36,57.14,24.21,2.65-1.61,5.52-3.39,6.74-6.17,2.68-6.11,7.28-6.75,13.2-6.66,20.69.31,41.38.22,62.07.04,4.32-.04,5.55.61,4.47,5.4-6.76,29.72-25.04,49.68-52.85,60.26-34.6,13.17-69.83,13.24-104.28-.78-33.44-13.61-51.86-39.65-56.99-74.91-3.12-21.49-2.51-42.99,4.58-63.92,8.93-26.37,26.42-45,51.95-55.4,32.57-13.26,66.08-14.03,99.38-3.03,40.06,13.23,62.69,46.1,62.65,89.39,0,6.82-.79,13.63-.87,20.44-.05,4.2-1.49,5.55-5.86,5.5-22.89-.23-45.78-.11-68.68-.11ZM1180.04,156.32c8.14,0,16.29,0,24.43,0,13.81,0,14.78-1.65,8.33-14.25-.4-.78-.9-1.51-1.36-2.26-6.94-11.24-21.86-16.27-38.71-13.56-15.06,2.42-24.48,10.78-28.78,25.33-1.14,3.87-.24,4.9,3.75,4.82,10.78-.23,21.57-.08,32.35-.08Z"/>
  <path class="cls-1" d="M348.64,178.21c-.24-28.95,6.52-55.41,27.52-76.67,15.36-15.55,34.39-24.2,55.66-27.86,27.78-4.78,55.25-3.87,81.68,7.06,33.36,13.79,52.2,39.23,57.58,74.51,3.07,20.15,2.72,40.46-3.04,60.22-8.48,29.1-26.97,49.87-55.24,60.5-38.09,14.32-76.47,14.05-113.29-4.19-31.41-15.57-46.63-42.8-50.09-77.07-.55-5.47-.54-10.99-.79-16.49ZM422.8,177.57c.44,6.35.61,12.72,2.15,18.96,3.82,15.57,15.6,25.89,31,26.99,19.77,1.41,32.73-5.87,38.76-22.46,4.85-13.35,5.08-27.1,1.69-40.89-4.27-17.37-16.19-26.84-34.64-27.52-17.72-.65-30.72,8.24-36.18,24.77-2.16,6.55-2.4,13.37-2.78,20.16Z"/>
  <path class="cls-1" d="M585.97,178.15c-.86-23.66,3.7-45.98,17.71-65.56,15.83-22.12,38.07-34.1,64.39-38.74,31.94-5.63,63.22-3.97,92.41,11.71,27.28,14.65,42.57,38.23,47.22,68.45,3.2,20.79,3.13,41.77-3.04,62.13-9.81,32.38-31.58,53.39-63.75,62.92-35.61,10.56-71.05,9.71-104.64-7.29-32.31-16.35-47.41-44.44-50.24-79.76-.37-4.59-.05-9.24-.05-13.86ZM659.73,179.76c-.07,3.75.48,9.64,1.76,15.47,3.37,15.4,13.88,25.73,28.63,28.09,16.95,2.71,32.14-3.54,39.06-16.84,6.74-12.96,7.24-26.96,5.13-41.15-1.28-8.65-4.07-16.75-10.61-22.85-11.45-10.69-25.04-11.75-39.4-7.67-13.3,3.77-19.75,13.73-22.94,26.41-1.35,5.37-1.6,10.85-1.63,18.55Z"/>
  <path class="cls-1" d="M1500.92,211.64c10.57,0,21.13-.04,31.7.03,1.78.01,3.83-.76,4.76,2.12,3.6,11.1,12.52,15.16,23.07,16.85,10.97,1.75,21.93,1.64,32.8-.65,2.75-.58,5.52-1.63,7.98-3.01,8.24-4.63,8.37-12.71.26-17.53-6.51-3.87-13.85-5.45-21.17-6.94-21.08-4.31-42.79-5.26-63.42-11.93-4.38-1.42-8.75-2.93-12.98-4.74-21.02-8.99-34.61-23.46-35.66-47.6-1.08-24.7,11.17-41.37,31.62-52.86,19.91-11.18,41.9-14.16,64.32-14.3,24.83-.16,49.2,2.36,71.55,14.57,21.14,11.55,33,29.63,37.38,53.03.75,3.99.22,5.74-4.65,5.67-20.69-.3-41.38-.17-62.08-.07-2.97.01-4.83-.4-5.64-3.79-1.95-8.2-8.02-12.43-15.69-14.28-11.28-2.72-22.7-2.65-34.02-.12-2.53.56-5.06,1.64-7.26,3.01-7.56,4.69-7.51,12.99.31,17.34,9.78,5.43,20.8,6.81,31.63,8.52,18.22,2.87,36.67,4.63,54.29,10.5,15.83,5.28,30.87,12.17,40.03,27.1,14.74,24.01,10.05,51.21-11.61,69.27-13.72,11.44-29.95,17.36-47.25,20.39-31.18,5.46-62.23,5.1-92.65-4.44-30.22-9.48-48.41-29.74-53.38-61.47-.64-4.1.32-4.8,4.07-4.73,10.56.2,21.13.07,31.7.07Z"/>
  <path class="cls-1" d="M322.83,139.97c0,44.47-.09,88.95.12,133.42.02,5.19-1.29,6.64-6.52,6.56-20.47-.31-40.95-.24-61.42-.03-4.34.04-6.04-.68-6.03-5.62.16-89.61.15-179.22.02-268.82,0-4.32,1.11-5.48,5.42-5.43,20.91.23,41.83.25,62.74-.01,4.68-.06,5.79,1.28,5.77,5.85-.18,44.69-.11,89.39-.1,134.08Z"/>
  <path class="cls-1" d="M1375.63,138.6c3.4-14.33,6.73-27,13.19-38.69,15.5-28,39.11-33.23,67.46-25.95,2.52.65,3.02,1.79,3.02,4.05-.05,23.56-.11,47.12.05,70.67.02,3.66-1.58,3.87-4.37,3.53-10.51-1.31-21.05-1.71-31.64-1.26-17.22.74-26.73,8.68-30.3,25.51-1.84,8.66-2.07,17.48-2.1,26.29-.08,23.78-.15,47.56.08,71.33.05,4.64-1.26,5.89-5.86,5.84-21.13-.24-42.27-.2-63.41-.02-3.96.03-5.21-.9-5.2-5.08.14-64.51.14-129.02,0-193.53,0-3.97,1.36-4.68,4.9-4.59,8.36.23,16.74.33,25.09-.04,3.89-.17,5.33,1.46,6.58,4.72,7.2,18.6,14.58,37.14,22.5,57.21Z"/>
  <path class="cls-1" d="M701.99,9.17c27.95,1.77,57.27,5.74,83.18,22.57,8.34,5.42,10.51,9.88,7.21,15.14-3.31,5.3-8.32,5.13-16.63.08-28.21-17.14-59.12-21.6-91.41-18.87-6.79.57-11.33-1.45-12.32-6.77-.99-5.3,2.3-9.35,8.97-10.81,6.27-1.38,12.66-1.48,21-1.36Z"/>
  <path class="cls-1" d="M471.33,9.18c7.8-.13,14.63-.1,21.32,1.49,6.22,1.48,9.34,5.53,8.36,10.62-.99,5.16-5.38,7.46-11.63,6.91-33.48-2.96-65.36,1.78-94.29,20.2-6.05,3.85-11.39,3.29-14.43-1.49-2.89-4.56-1.35-9.3,4.43-13.31,22.65-15.72,48.56-21.1,75.34-23.68,3.94-.38,7.9-.54,10.9-.74Z"/>
</svg>